<?xml version="1.0" encoding="UTF-8" standalone="no"?>
<!DOCTYPE svg PUBLIC "-//W3C//DTD SVG 1.1//EN" "http://www.w3.org/Graphics/SVG/1.1/DTD/svg11.dtd">
<svg width="100%" height="100%" viewBox="0 0 22 22" version="1.1" xmlns="http://www.w3.org/2000/svg" xmlns:xlink="http://www.w3.org/1999/xlink" xml:space="preserve" xmlns:serif="http://www.serif.com/" style="fill-rule:evenodd;clip-rule:evenodd;stroke-linecap:round;stroke-linejoin:round;">
    <g transform="matrix(1,0,0,1,-1.00447,-1)">
        <path d="M11,7C9.101,5.101 7.472,3.472 6,2" style="fill:none;fill-rule:nonzero;stroke:black;stroke-width:2px;"/>
    </g>
    <g transform="matrix(1,0,0,1,-1.00447,-1)">
        <path d="M18.992,12L2.041,12" style="fill:none;fill-rule:nonzero;stroke:black;stroke-width:2px;"/>
    </g>
    <path d="M1.193,13.443C2.023,14.418 8.537,19.127 8.537,19.127L17.001,12.696L18.868,9.875L1.359,9.875C1.359,9.875 0.363,12.468 1.193,13.443Z" style="fill:rgb(255,61,0);"/>
    <g transform="matrix(1,0,0,1,-1.00447,-1)">
        <path d="M21.145,18.38C20.562,17.901 20.158,17.238 20,16.5C19.845,17.239 19.44,17.903 18.855,18.38C18.28,18.84 18,19.4 18,19.975C18,19.983 18,19.992 18,20C18,21.097 18.903,22 20,22L20,22C21.097,22 22,21.097 22,20C22,19.992 22,19.983 22,19.975C22,19.395 21.715,18.845 21.145,18.38" style="fill:rgb(255,0,0);fill-rule:nonzero;stroke:rgb(255,0,0);stroke-width:2px;"/>
    </g>
    <g transform="matrix(1,0,0,1,-1.00447,-1)">
        <path d="M8.5,4.5L10.648,2.352C11.115,1.885 11.885,1.885 12.352,2.352L19.648,9.648C20.115,10.115 20.115,10.885 19.648,11.352L12.056,18.944C10.654,20.346 8.346,20.346 6.944,18.944L3.056,15.056C1.654,13.654 1.654,11.346 3.056,9.944L5.67,7.33" style="fill:none;fill-rule:nonzero;stroke:black;stroke-width:2px;"/>
    </g>
</svg>
