<?xml version="1.0" encoding="UTF-8" standalone="no"?>
<!DOCTYPE svg PUBLIC "-//W3C//DTD SVG 1.1//EN" "http://www.w3.org/Graphics/SVG/1.1/DTD/svg11.dtd">
<svg width="100%" height="100%" viewBox="0 0 312 312" version="1.1" xmlns="http://www.w3.org/2000/svg" xmlns:xlink="http://www.w3.org/1999/xlink" xml:space="preserve" xmlns:serif="http://www.serif.com/" style="fill-rule:evenodd;clip-rule:evenodd;stroke-linejoin:round;stroke-miterlimit:2;">
    <g transform="matrix(1,0,0,1,0,-883.944)">
        <g id="Artboard1" transform="matrix(0.305538,0,0,0.406406,-100.398,810.005)">
            <rect x="328.596" y="181.934" width="1021.15" height="767.705" style="fill:none;"/>
            <clipPath id="_clip1">
                <rect x="328.596" y="181.934" width="1021.15" height="767.705"/>
            </clipPath>
            <g clip-path="url(#_clip1)">
                <g transform="matrix(3.65211,0,0,3.04926,255.565,129.866)">
                    <path d="M301.228,21.142L301.228,257.734C301.228,265.654 294.086,272.085 285.29,272.085L24.059,272.085C15.263,272.085 8.122,265.654 8.122,257.734L8.122,21.142C8.122,13.222 15.263,6.792 24.059,6.792L285.29,6.792C294.086,6.792 301.228,13.222 301.228,21.142Z" style="fill:white;"/>
                </g>
                <g transform="matrix(3.54647,0,0,2.65293,276.971,-2202.41)">
                    <path d="M298.665,925.75L298.665,1160.44C298.665,1173.85 287.831,1184.74 274.485,1184.74L42.705,1184.74C29.36,1184.74 18.525,1173.85 18.525,1160.44L18.525,925.75C18.525,912.338 29.36,901.449 42.705,901.449L274.485,901.449C287.831,901.449 298.665,912.338 298.665,925.75Z" style="fill:rgb(138,161,199);"/>
                </g>
                <g transform="matrix(1.08358,0,0,1.07817,-70.2468,-41.96)">
                    <g transform="matrix(1,0,0,1,20.0986,52.8841)">
                        <g transform="matrix(2.67568,0,0,2.07022,-1435.51,-192.815)">
                            <rect x="692.686" y="368.05" width="53.084" height="51.596" style="fill:rgb(213,213,213);"/>
                        </g>
                        <g transform="matrix(2.67568,0,0,2.07022,-1274.51,-192.815)">
                            <rect x="692.686" y="368.05" width="53.084" height="51.596" style="fill:rgb(213,213,213);"/>
                        </g>
                        <g transform="matrix(2.67568,0,0,2.07022,-1113.51,-192.815)">
                            <rect x="692.686" y="368.05" width="53.084" height="51.596" style="fill:rgb(213,213,213);"/>
                        </g>
                        <g transform="matrix(2.67568,0,0,2.07022,-952.503,-192.815)">
                            <rect x="692.686" y="368.05" width="53.084" height="51.596" style="fill:rgb(213,213,213);"/>
                        </g>
                        <g transform="matrix(2.67568,0,0,2.07022,-791.499,-192.815)">
                            <rect x="692.686" y="368.05" width="53.084" height="51.596" style="fill:rgb(213,213,213);"/>
                        </g>
                    </g>
                    <g transform="matrix(1,0,0,1,20.0986,-67.4753)">
                        <g transform="matrix(2.67568,0,0,2.07022,-1435.51,-192.815)">
                            <rect x="692.686" y="368.05" width="53.084" height="51.596" style="fill:rgb(213,213,213);"/>
                        </g>
                        <g transform="matrix(2.67568,0,0,2.07022,-1274.51,-192.815)">
                            <rect x="692.686" y="368.05" width="53.084" height="51.596" style="fill:rgb(213,213,213);"/>
                        </g>
                        <g transform="matrix(2.67568,0,0,2.07022,-1113.51,-192.815)">
                            <rect x="692.686" y="368.05" width="53.084" height="51.596" style="fill:rgb(213,213,213);"/>
                        </g>
                        <g transform="matrix(2.67568,0,0,2.07022,-952.503,-192.815)">
                            <rect x="692.686" y="368.05" width="53.084" height="51.596" style="fill:rgb(213,213,213);"/>
                        </g>
                        <g transform="matrix(2.67568,0,0,2.07022,-791.499,-192.815)">
                            <rect x="692.686" y="368.05" width="53.084" height="51.596" style="fill:rgb(213,213,213);"/>
                        </g>
                    </g>
                    <g transform="matrix(1,0,0,1,20.0986,-187.835)">
                        <g transform="matrix(2.67568,0,0,2.07022,-1435.51,-192.815)">
                            <rect x="692.686" y="368.05" width="53.084" height="51.596" style="fill:rgb(213,213,213);"/>
                        </g>
                        <g transform="matrix(2.67568,0,0,2.07022,-1274.51,-192.815)">
                            <rect x="692.686" y="368.05" width="53.084" height="51.596" style="fill:rgb(213,213,213);"/>
                        </g>
                        <g transform="matrix(2.67568,0,0,2.07022,-1113.51,-192.815)">
                            <rect x="692.686" y="368.05" width="53.084" height="51.596" style="fill:rgb(213,213,213);"/>
                        </g>
                        <g transform="matrix(2.67568,0,0,2.07022,-952.503,-192.815)">
                            <rect x="692.686" y="368.05" width="53.084" height="51.596" style="fill:rgb(213,213,213);"/>
                        </g>
                        <g transform="matrix(2.67568,0,0,2.07022,-791.499,-192.815)">
                            <rect x="692.686" y="368.05" width="53.084" height="51.596" style="fill:rgb(213,213,213);"/>
                        </g>
                    </g>
                    <g transform="matrix(1,0,0,1,20.0986,-308.194)">
                        <g transform="matrix(2.67568,0,0,2.07022,-1435.51,-192.815)">
                            <rect x="692.686" y="368.05" width="53.084" height="51.596" style="fill:rgb(213,213,213);"/>
                        </g>
                        <g transform="matrix(2.67568,0,0,2.07022,-1274.51,-192.815)">
                            <rect x="692.686" y="368.05" width="53.084" height="51.596" style="fill:rgb(213,213,213);"/>
                        </g>
                        <g transform="matrix(2.67568,0,0,2.07022,-1113.51,-192.815)">
                            <rect x="692.686" y="368.05" width="53.084" height="51.596" style="fill:rgb(213,213,213);"/>
                        </g>
                        <g transform="matrix(2.67568,0,0,2.07022,-952.503,-192.815)">
                            <rect x="692.686" y="368.05" width="53.084" height="51.596" style="fill:rgb(213,213,213);"/>
                        </g>
                        <g transform="matrix(2.67568,0,0,2.07022,-791.499,-192.815)">
                            <rect x="692.686" y="368.05" width="53.084" height="51.596" style="fill:rgb(213,213,213);"/>
                        </g>
                    </g>
                    <g transform="matrix(1,0,0,1,11.2188,1.57748)">
                        <g transform="matrix(2.67568,0,0,2.07022,-1426.63,-21.1489)">
                            <rect x="692.686" y="368.05" width="53.084" height="51.596" style="fill:rgb(213,213,213);"/>
                        </g>
                        <g transform="matrix(2.67568,0,0,2.07022,-1265.63,-21.1489)">
                            <rect x="692.686" y="368.05" width="53.084" height="51.596" style="fill:rgb(213,213,213);"/>
                        </g>
                        <g transform="matrix(2.67568,0,0,2.07022,-1104.63,-21.1489)">
                            <rect x="692.686" y="368.05" width="53.084" height="51.596" style="fill:rgb(213,213,213);"/>
                        </g>
                        <g transform="matrix(2.67568,0,0,2.07022,-943.623,-21.1489)">
                            <rect x="692.686" y="368.05" width="53.084" height="51.596" style="fill:rgb(213,213,213);"/>
                        </g>
                        <g transform="matrix(2.67568,0,0,2.07022,-782.619,-21.1489)">
                            <rect x="692.686" y="368.05" width="53.084" height="51.596" style="fill:rgb(213,213,213);"/>
                        </g>
                    </g>
                </g>
                <g transform="matrix(3.54647,0,0,2.65293,333.317,251.359)">
                    <path d="M51.157,199.172C88.103,155.33 126.408,113.109 162.095,68.663C163.034,67.494 163.841,66.196 164.899,65.15C167.214,62.862 167.892,58.946 171.548,58.061C173.916,57.488 182.96,60.823 186.095,63.179C182.513,69.508 176.121,74.237 174.072,83.181C184.971,80.004 191.35,72.299 199.274,65.908C195.229,62.559 190.733,60.988 186.301,59.404C167.892,52.824 148.836,52.144 129.588,53.41C125.577,53.674 123.975,54.93 124.944,59.742C130.085,85.27 111.695,107.377 86.647,106.285C73.451,105.709 64.092,98.45 62.092,86.999C60.653,78.754 63.915,71.946 69.363,66.092C76.554,58.365 85.662,53.544 95.284,49.566C97.87,48.496 100.697,47.942 103.04,46.109C102.692,43.808 100.781,42.884 99.25,41.738C90.964,35.532 81.426,32.801 71.259,32.385C63.115,32.051 54.947,31.912 46.797,32.802C43.081,33.208 40.116,31.722 39.374,27.748C38.655,23.903 40.892,21.399 44.397,20.993C60.711,19.106 76.954,18.907 92.753,24.494C101.589,27.619 109.219,32.536 115.069,39.911C117.006,42.354 119.063,42.762 122.024,42.341C150.69,38.262 178.496,40.611 204.603,54.225C207.593,55.785 209.379,55.426 211.369,52.896C215.428,47.736 219.977,42.902 221.747,36.292C219.03,34.777 217.427,36.416 215.819,37.333C211.171,39.986 207.128,43.488 203.029,46.897C201.884,47.849 200.801,49.29 199.159,48.708C193.901,46.844 188.708,44.795 183.762,42.921C183.698,42.117 183.606,41.879 183.682,41.795C195.153,29.163 207.649,17.941 225.721,16.726C235.942,16.038 242.366,24.201 240.732,34.353C238.972,45.282 233.149,54.12 226.401,62.501C225.16,64.043 223.982,65.636 222.644,67.376C228.909,74.92 234.03,82.829 236.307,92.271C240.641,110.246 236.193,126.626 226.869,141.911C210.45,168.825 185.402,183.488 155.639,191.227C143.854,194.292 131.82,195.881 119.733,197.115C117.914,197.301 116.072,197.276 114.24,197.313C110.594,197.388 108.024,195.935 107.593,192.069C107.128,187.896 109.54,185.893 113.36,185.417C121.114,184.45 128.929,183.889 136.639,182.663C163.186,178.442 187.718,169.795 206.299,149.097C218.067,135.987 226.512,121.263 225.586,102.879C225.068,92.593 221.229,83.606 213.487,76.472C196.162,89.015 179.468,101.682 163.553,115.34C135.745,139.203 107.997,163.137 80.199,187.012C70.849,195.043 61.423,202.986 52.028,210.964C49.931,212.745 47.636,214.641 45.043,212.157C42.369,209.594 44.435,207.301 46.121,205.195C47.683,203.245 49.318,201.354 51.157,199.172M103.511,89.06C112.475,81.614 115.831,71.275 112.896,61.059C111.994,57.92 110.681,57.095 107.547,58.188C101.259,60.383 95.061,62.738 89.289,66.092C83.932,69.205 78.863,72.68 75.754,78.28C72.29,84.519 74.356,90.391 81.121,92.672C88.837,95.273 96.194,94.164 103.511,89.06Z" style="fill:rgb(34,77,147);fill-rule:nonzero;"/>
                </g>
            </g>
        </g>
    </g>
</svg>
