<?xml version="1.0" encoding="UTF-8" standalone="no"?>
<!DOCTYPE svg PUBLIC "-//W3C//DTD SVG 1.1//EN" "http://www.w3.org/Graphics/SVG/1.1/DTD/svg11.dtd">
<svg width="100%" height="100%" viewBox="0 0 312 312" version="1.1" xmlns="http://www.w3.org/2000/svg" xmlns:xlink="http://www.w3.org/1999/xlink" xml:space="preserve" xmlns:serif="http://www.serif.com/" style="fill-rule:evenodd;clip-rule:evenodd;stroke-linejoin:round;stroke-miterlimit:2;">
    <g transform="matrix(1.02979,0,0,1.14939,-3.45112,-4.2238)">
        <path d="M301.228,21.071L301.228,257.806C301.228,265.687 294.086,272.085 285.29,272.085L24.059,272.085C15.263,272.085 8.122,265.687 8.122,257.806L8.122,21.071C8.122,13.19 15.263,6.792 24.059,6.792L285.29,6.792C294.086,6.792 301.228,13.19 301.228,21.071Z" style="fill:rgb(34,77,147);"/>
    </g>
    <g id="Artboard1" transform="matrix(1.00747,0,0,1.13047,-3.12173,-39.9885)">
        <rect x="3.099" y="35.373" width="309.687" height="275.991" style="fill:none;"/>
        <g transform="matrix(1.05261,0,0,1.05261,-6.77682,-8.89239)">
            <g transform="matrix(1.21255,0,0,1.08061,-28.2312,4.17302)">
                <g transform="matrix(1,0,0,1,0.0985836,0.373204)">
                    <path d="M72.054,62.991L109.578,62.991C109.578,68.549 109.578,73.662 109.578,78.775C109.577,87.587 109.697,96.404 109.453,105.21C109.413,106.673 107.808,109.331 106.887,109.348C92.463,109.612 78.032,109.533 63.3,109.533L63.3,62.991C66.062,62.991 68.811,62.991 72.054,62.991Z" style="fill:rgb(213,228,253);fill-rule:nonzero;"/>
                </g>
                <g transform="matrix(1,0,0,1,0.0985836,0.373204)">
                    <path d="M205.591,109.55C204.254,108.605 202.584,107.68 202.577,106.744C202.475,92.609 202.589,78.473 202.676,64.338C202.678,64.045 202.964,63.754 203.239,63.232L248.67,63.232L248.67,109.566C234.469,109.566 220.25,109.566 205.591,109.55Z" style="fill:rgb(213,228,253);fill-rule:nonzero;"/>
                </g>
                <g transform="matrix(1,0,0,1,0.0985836,0.373204)">
                    <path d="M109.512,246.492C108.556,247.625 107.635,248.893 106.703,248.901C92.416,249.027 78.127,248.989 63.418,248.989L63.418,202.439C68.711,202.439 73.991,202.439 79.271,202.439C87.587,202.439 95.908,202.624 104.215,202.36C108.258,202.232 109.743,203.367 109.657,207.626C109.398,220.427 109.551,233.236 109.512,246.492Z" style="fill:rgb(214,229,253);fill-rule:nonzero;"/>
                </g>
                <g transform="matrix(1,0,0,1,0.0985836,0.373204)">
                    <path d="M203.602,248.758C202.929,244.668 202.506,240.731 202.466,236.789C202.365,226.811 202.327,216.829 202.553,206.856C202.586,205.382 204.164,202.691 205.066,202.675C219.496,202.41 233.932,202.488 248.682,202.488L248.682,248.908C233.797,248.908 218.911,248.908 203.602,248.758Z" style="fill:rgb(214,229,253);fill-rule:nonzero;"/>
                </g>
                <g transform="matrix(1,0,0,1,0.0985836,0.373204)">
                    <path d="M178.769,108.389C177.145,109.081 175.712,109.607 174.275,109.615C162.138,109.681 149.997,109.532 137.862,109.723C133.928,109.785 132.713,108.423 132.779,104.536C132.986,92.402 132.963,80.26 132.791,68.124C132.738,64.386 133.666,62.825 137.776,62.909C150.076,63.159 162.384,63.067 174.687,62.954C177.742,62.926 179.24,63.663 179.192,67.09C179.001,80.719 179.018,94.351 178.769,108.389Z" style="fill:rgb(176,204,251);fill-rule:nonzero;"/>
                </g>
                <g transform="matrix(1,0,0,1,0.0985836,0.373204)">
                    <path d="M109.655,140.143C109.654,151.761 109.539,162.899 109.718,174.032C109.779,177.831 108.681,179.303 104.646,179.228C92.35,178.998 80.046,179.026 67.75,179.215C64.026,179.272 62.868,178.048 62.926,174.352C63.119,162.221 63.127,150.084 62.923,137.954C62.858,134.116 63.929,132.699 67.946,132.778C79.576,133.008 91.214,132.854 102.848,132.859C109.59,132.862 109.59,132.869 109.655,140.143Z" style="fill:rgb(176,204,251);fill-rule:nonzero;"/>
                </g>
                <g transform="matrix(1,0,0,1,0.0985836,0.373204)">
                    <path d="M247.57,178.863C233.661,179.05 220.197,179.029 206.735,179.192C203.547,179.231 202.279,178.177 202.308,174.909C202.42,162.276 202.424,149.641 202.307,137.008C202.277,133.654 203.722,132.785 206.82,132.814C219.453,132.929 232.087,132.871 244.721,132.857C247.015,132.855 249.033,132.877 249.012,136.126C248.925,149.591 248.973,163.056 248.908,176.52C248.904,177.256 248.327,177.989 247.57,178.863Z" style="fill:rgb(176,204,251);fill-rule:nonzero;"/>
                </g>
                <g transform="matrix(1,0,0,1,0.0985836,0.373204)">
                    <path d="M132.837,150.002C132.837,144.204 132.837,138.906 132.837,133.225L178.775,133.225L178.775,178.775L132.837,178.775C132.837,169.334 132.837,159.918 132.837,150.002Z" style="fill:rgb(213,228,253);fill-rule:nonzero;"/>
                </g>
                <g transform="matrix(1,0,0,1,0.0985836,0.373204)">
                    <path d="M173.823,248.997C161.358,248.997 149.374,248.893 137.393,249.059C133.912,249.107 132.761,247.94 132.803,244.478C132.958,231.997 132.932,219.513 132.822,207.032C132.794,203.828 133.947,202.593 137.179,202.62C149.66,202.725 162.144,202.745 174.625,202.607C178.15,202.568 179.225,203.95 179.188,207.335C179.054,219.65 179.014,231.969 179.212,244.281C179.272,248.06 177.95,249.511 173.823,248.997Z" style="fill:rgb(177,205,251);fill-rule:nonzero;"/>
                </g>
            </g>
            <g transform="matrix(0.992587,0,0,0.884585,156.486,171.623)">
                <g transform="matrix(1,0,0,1,-136,-112)">
                    <path d="M51.157,199.172C88.103,155.33 126.408,113.109 162.095,68.663C163.034,67.494 163.841,66.196 164.899,65.15C167.214,62.862 167.892,58.946 171.548,58.061C173.916,57.488 182.96,60.823 186.095,63.179C182.513,69.508 176.121,74.237 174.072,83.181C184.971,80.004 191.35,72.299 199.274,65.908C195.229,62.559 190.733,60.988 186.301,59.404C167.892,52.824 148.836,52.144 129.588,53.41C125.577,53.674 123.975,54.93 124.944,59.742C130.085,85.27 111.695,107.377 86.647,106.285C73.451,105.709 64.092,98.45 62.092,86.999C60.653,78.754 63.915,71.946 69.363,66.092C76.554,58.365 85.662,53.544 95.284,49.566C97.87,48.496 100.697,47.942 103.04,46.109C102.692,43.808 100.781,42.884 99.25,41.738C90.964,35.532 81.426,32.801 71.259,32.385C63.115,32.051 54.947,31.912 46.797,32.802C43.081,33.208 40.116,31.722 39.374,27.748C38.655,23.903 40.892,21.399 44.397,20.993C60.711,19.106 76.954,18.907 92.753,24.494C101.589,27.619 109.219,32.536 115.069,39.911C117.006,42.354 119.063,42.762 122.024,42.341C150.69,38.262 178.496,40.611 204.603,54.225C207.593,55.785 209.379,55.426 211.369,52.896C215.428,47.736 219.977,42.902 221.747,36.292C219.03,34.777 217.427,36.416 215.819,37.333C211.171,39.986 207.128,43.488 203.029,46.897C201.884,47.849 200.801,49.29 199.159,48.708C193.901,46.844 188.708,44.795 183.762,42.921C183.698,42.117 183.606,41.879 183.682,41.795C195.153,29.163 207.649,17.941 225.721,16.726C235.942,16.038 242.366,24.201 240.732,34.353C238.972,45.282 233.149,54.12 226.401,62.501C225.16,64.043 223.982,65.636 222.644,67.376C228.909,74.92 234.03,82.829 236.307,92.271C240.641,110.246 236.193,126.626 226.869,141.911C210.45,168.825 185.402,183.488 155.639,191.227C143.854,194.292 131.82,195.881 119.733,197.115C117.914,197.301 116.072,197.276 114.24,197.313C110.594,197.388 108.024,195.935 107.593,192.069C107.128,187.896 109.54,185.893 113.36,185.417C121.114,184.45 128.929,183.889 136.639,182.663C163.186,178.442 187.718,169.795 206.299,149.097C218.067,135.987 226.512,121.263 225.586,102.879C225.068,92.593 221.229,83.606 213.487,76.472C196.162,89.015 179.468,101.682 163.553,115.34C135.745,139.203 107.997,163.137 80.199,187.012C70.849,195.043 61.423,202.986 52.028,210.964C49.931,212.745 47.636,214.641 45.043,212.157C42.369,209.594 44.435,207.301 46.121,205.195C47.683,203.245 49.318,201.354 51.157,199.172M103.511,89.06C112.475,81.614 115.831,71.275 112.896,61.059C111.994,57.92 110.681,57.095 107.547,58.188C101.259,60.383 95.061,62.738 89.289,66.092C83.932,69.205 78.863,72.68 75.754,78.28C72.29,84.519 74.356,90.391 81.121,92.672C88.837,95.273 96.194,94.164 103.511,89.06Z" style="fill:rgb(29,174,202);fill-rule:nonzero;"/>
                </g>
            </g>
        </g>
    </g>
</svg>
